<svg height="auto" viewBox="0 0 2000 1200" xmlns="http://www.w3.org/2000/svg"><path d="M0 1194.418c12.35-4.483 70.3-24.628 95-34.48 24.7-9.85 70.3-34.976 95-41.3 24.7-6.323 70.3 10.968 95-7.343 24.7-18.311 70.3-119.268 95-133.51 24.7-14.243 70.3 26.682 95 23.953 24.7-2.73 70.3-38.855 95-44.946 24.7-6.09 70.3-.546 95-1.908 24.7-1.361 70.3 12.456 95-8.564 24.7-21.02 70.3-144.792 95-153.13 24.7-8.338 70.3 84.768 95 88.99 24.7 4.22 70.3-16.762 95-56.518 24.7-39.755 70.3-225.224 95-249.297 24.7-24.072 70.3 46.69 95 64.125 24.7 17.433 70.3 63.894 95 69.98 24.7 6.088 70.3 25.92 95-23.157 24.7-49.078 70.3-302.07 95-354.361 24.7-52.29 70.3-90.263 95-47.872 24.7 42.39 70.3 359.732 95 373.954 24.7 14.223 70.3-202.716 95-264.551 24.7-61.836 70.3-203.363 95-211.11 24.7-7.746 82.65 131.824 95 151.521l5 865.106H0Z" fill="#93d8101a"/><path d="M0 1194.418c12.35-4.483 70.3-24.628 95-34.48 24.7-9.85 70.3-34.976 95-41.3 24.7-6.323 70.3 10.968 95-7.343 24.7-18.311 70.3-119.268 95-133.51 24.7-14.243 70.3 26.682 95 23.953 24.7-2.73 70.3-38.855 95-44.946 24.7-6.09 70.3-.546 95-1.908 24.7-1.361 70.3 12.456 95-8.564 24.7-21.02 70.3-144.792 95-153.13 24.7-8.338 70.3 84.768 95 88.99 24.7 4.22 70.3-16.762 95-56.518 24.7-39.755 70.3-225.224 95-249.297 24.7-24.072 70.3 46.69 95 64.125 24.7 17.433 70.3 63.894 95 69.98 24.7 6.088 70.3 25.92 95-23.157 24.7-49.078 70.3-302.07 95-354.361 24.7-52.29 70.3-90.263 95-47.872 24.7 42.39 70.3 359.732 95 373.954 24.7 14.223 70.3-202.716 95-264.551 24.7-61.836 70.3-203.363 95-211.11 24.7-7.746 82.65 131.824 95 151.521" fill="none" stroke="#93d810" stroke-width="2"/></svg>